<svg version="1" xmlns="http://www.w3.org/2000/svg" width="769.333" height="769.333" viewBox="0 0 577.000000 577.000000"><path d="M273.9 32.4c-.2.2-3.5.6-7.4 1-9.7.9-25.2 3.5-30.3 5-.9.3-2.8.7-4.2 1-1.4.3-3.4.7-4.5 1-3.1.7-18.8 5.6-21 6.5-1.1.5-3.6 1.5-5.5 2.2-9.1 3.2-30 13.1-30 14.1 0 .4-.5.8-1.1.8-1.8 0-21.6 12.3-29.4 18.2-3 2.2-14.3 11.5-16 13.1-1.2 1.1-2.9 1.6-4.3 1.4-2.6-.5-3.9 1-2.4 2.5.7.7-.3 2.4-3.6 5.5l-4.6 4.4-4.3-4.4c-2.3-2.4-4-4.7-3.7-4.9.2-.3-.2-1.1-1.1-1.8-.8-.7-1.5-2-1.5-2.9 0-1.8-1.8-4.1-3.2-4.1-.4 0-.8.5-.8 1 0 1.1 4.1 10.2 4.9 11 3.8 3.6 7.2 8 6.7 8.9-1 1.5-5.6-.4-9.3-3.9-3-2.8-6.3-4-6.3-2.2 0 1.1 8.5 8.1 10.9 9 1.8.6 1.6 1.1-2.5 5.7-2.4 2.7-5 5.7-5.7 6.5-2.7 3.1-12.4 16.7-15.6 21.7-1.8 2.9-3.7 5.3-4.1 5.3-.5 0-1.1 1.4-1.5 3-.4 1.7-1.2 3.6-1.9 4.3-1.6 1.6-14 27-15.7 32.2l-1.3 4-1.2-6.5c-.7-3.6-1.7-7.8-2.3-9.3-1.7-4.4-1.3-8.5 1.3-13.7 3.6-7.1 4.8-13.1 3.3-16.3-1.4-3-2.7-1.9-2.3 2 .2 2.5-.6 5.8-2.1 9.3-1.4 3-2.6 6.2-2.7 7-.5 2.6-1.9 1.7-5.8-4-2.1-3-4.5-6.3-5.3-7.3-.8-.9-2.2-5.4-3-10-.8-4.5-1.7-9.6-2-11.2-.7-3.5-3.4-6-4.9-4.5-.6.6-.4 1.5.4 2.6.8.9 1.5 2.1 1.6 2.8.2.6.7 3.5 1.3 6.5.6 2.9 1.1 6.3 1.1 7.3 0 1.9-.2 1.9-2.9-.4-1.6-1.2-4.1-3.2-5.7-4.3C18.6 144.9 9 134.9 9.5 134c.6-.9-3.3-7-4.5-7-1.2 0-1.3 2.3-.3 3.4.5.4.8 1.1.9 1.4.3 2.5 2.9 6.5 7.3 11.2 2.8 3 5.1 5.5 5.1 5.6 0 .2-1.2.1-2.7-.1-1.6-.2-3.1-.4-3.6-.4-.4-.1-2.7-1.9-5-4-2.9-2.7-4.7-3.7-5.6-3.1-1 .6-.3 1.7 2.9 4.6 4.8 4.4 5.9 4.9 11.5 5.7 9 1.2 10.7 2 17.1 8.3 3.5 3.5 6.4 7.1 6.4 7.9 0 .9-.4 1.4-.8 1.1-.4-.3-2.6-.7-4.8-1-2.1-.2-6.4-.8-9.4-1.2-5-.7-5.4-.6-4.2.9.8.9 3.2 1.9 5.5 2.2 2.3.4 5.1.8 6.2 1 1.1.2 3.4.4 5.2.4 3.6.1 8.1 3.5 8.7 6.6.2 1.1 1 3.3 1.6 5 1.9 4.7 3.9 14.5 2.9 14.5-.5 0-.9-.6-.9-1.3 0-1.6-4.1-5.7-5.7-5.7-.6 0-1.7 2.4-2.5 5.2-1.2 4.3-1.2 5.9-.3 8.2l1.3 2.9-8.2 3c-4.4 1.6-9.7 3.1-11.6 3.3-11.2 1.4-12.7 2.3-10.6 6.3.7 1.4 2.1 4.4 3.2 6.5C18.2 232.8 26 237 36.4 237c4.9 0 5.7.3 5.2 1.6-.3.9-.6 2.7-.6 4.1 0 2.1-.4 2.5-2.3 2.1-16.4-3.6-18.4-3.9-21-2.9-2.9 1.1-3 1.8-.9 8.6 1.3 4.3 6 13.4 8.8 17.2 1.3 1.7 2.4 3.4 2.4 3.8 0 .3 2 2.6 4.4 5l4.3 4.4.6 16.8c.7 17.1 1 20.4 2.8 30.6.5 3.2 1.2 7 1.4 8.5.7 4.4 1.5 8 3.1 14 .9 3.2 1.9 7 2.4 8.7 2.9 10.8 9.1 26.8 15.1 39.3 4.6 9.4 14.4 27 15.8 28.2.3.3 1.3 1.7 2.1 3.1 2.3 4.2 11.5 16.2 20 26.3 6.7 8 24.5 25 32.6 31.1 2.7 2.1 5.1 4.1 5.4 4.5.9 1.2 21.9 15 23 15 .5 0 1 .4 1 .9 0 1.1 33.8 17.8 37.4 18.5.6.1 2.7.9 4.6 1.8 1.9.8 6.2 2.3 9.5 3.2 3.3 1 7.1 2.2 8.5 2.7 2.3.9 3.9 1.3 9.9 2.5 1.4.3 2.7.7 3.1.9 1.1.7 24 4.5 31.5 5.3 9 .9 46.3.9 53.8-.1 17.2-2.1 36.6-6.1 46.7-9.5.8-.3 2-.6 2.5-.7 2-.5 13.1-4.3 16-5.5 1.7-.7 5-2.2 7.5-3.2 5.8-2.6 8.3-3.6 9.4-3.6.5 0 1.2-.4 1.5-.9.3-.5 3.1-2.1 6.1-3.6 10.2-4.9 34.2-19.9 38-23.7.3-.3 2.5-2.1 5-4 9.2-7 26.8-24.1 35.1-34 3-3.6 5.6-6.7 5.9-7 1.3-1.2 8.8-11.7 9.8-13.7.7-1.2 1.8-2.7 2.5-3.5 1.8-1.8 10.6-16.7 15-25.3 6-11.8 12.1-26.4 15.3-36.7l1.7-5.6h5.1c6.8.1 12.6-1.6 16.2-4.7 1.6-1.4 3.2-2.5 3.5-2.5 1 0 8.4-11.3 10.2-15.5 2.6-6.4 3.5-10.8 3.5-17.9 0-9-2.7-17.6-10.4-32.9-3.6-7.1-6.2-13.2-6-13.6.7-1.1 1.9-10.3 1.7-13.1-.3-5.4-2.2-8.5-7-11.8-4.7-3.2-4.8-3.4-3.7-6.5.6-1.8 1.4-3.7 1.8-4.3.4-.6 1-2.9 1.4-5.1.9-5.5-2.3-9.3-8.4-9.8-4.7-.3-5.2-.6-5.6-2.7-1.3-7.3-7.6-24.9-14.3-39.8-7.9-17.4-22.4-41.5-29.9-49.4-.6-.6-1.3-1.6-1.5-2.2-1.3-3.6-27-30.3-35.8-37.4-2.4-1.9-5.8-4.7-7.5-6.1-13.6-11.4-41-27.6-59.6-35.1-1.4-.6-3.4-1.5-4.5-1.9-5-2.2-15.5-5.8-15.5-5.4 0 .2-1.7-.3-3.7-1.1-2-.9-4.5-1.8-5.5-2-1-.2-2.7-.6-3.8-.9-1.1-.3-2.9-.7-4-1-1.1-.3-2.9-.7-4-1-5.2-1.3-13.7-2.9-22-4.1-2.5-.3-5.6-.8-7-1-3-.6-47.6-1.4-48.1-1zM35 252.5c.8.2 2.1.4 2.8.4.9.1 1.2 1.3.8 4.3-.3 2.4-.5 5.1-.5 6.2-.1 1.6-.4 1.4-2.3-.9-1.2-1.6-3.7-4.4-5.5-6.4-1.8-2-3.3-3.9-3.3-4.3 0-.5 3.2-.3 8 .7z"/></svg>